<svg xmlns="http://www.w3.org/2000/svg" width="60" height="60" fill="none"><g clip-path="url(#a)"><path fill="#fff" d="M30 0c11.215 0 16.823 0 21 2.411A18 18 0 0 1 57.589 9C60 13.177 60 18.785 60 30s0 16.823-2.411 21A18 18 0 0 1 51 57.589C46.823 60 41.215 60 30 60s-16.823 0-21-2.411A18 18 0 0 1 2.411 51C0 46.823 0 41.215 0 30S0 13.177 2.411 9A18 18 0 0 1 9 2.411C13.177 0 18.785 0 30 0m16.594 11.373a3.314 3.314 0 0 0-4.528.041 3.224 3.224 0 0 0-.192 4.472l.115.124.287.3c2.907 3.122 3.872 6.556 3.61 9.899-.276 3.543-1.955 7.154-4.559 10.168-2.606 3.016-5.965 5.232-9.317 6.151-3.292.903-6.482.55-9.208-1.375a5.6 5.6 0 0 1-1.527-1.645c-.882-.432-3.93-1.72-6.093-3.255-.769-.48-.411-.757 0-.576a37 37 0 0 0 5.258 1.88v-.002c4.203 1.13 7.927 1.189 11.106.344 4.417-1.173 7.489-4.02 9.002-7.438 1.484-3.353 1.458-7.251-.24-10.492-1.753-3.347-5.15-5.719-9.747-6.099-5.104-.421-9.27 2.405-12.05 5.94-1.854 2.36-3.262 5.223-4.112 8.205a57 57 0 0 1-4.154-2.55l-.583-.396-.142-.092a3.31 3.31 0 0 0-4.432.908 3.226 3.226 0 0 0 .687 4.424l.136.098.64.435c2.424 1.627 4.734 2.965 6.928 4.042.102 4.335 1.592 8.799 5.503 11.56 4.612 3.256 9.925 3.68 14.783 2.349 4.797-1.315 9.236-4.346 12.56-8.193 3.326-3.85 5.71-8.723 6.114-13.89.398-5.095-1.152-10.312-5.314-14.79l-.411-.43zM23.702 23.799c1.977-2.516 4.203-3.626 6.312-3.451 2.449.202 3.791 1.338 4.458 2.61.722 1.379.798 3.212.053 4.896-.716 1.617-2.203 3.11-4.684 3.768-2.143.57-5.227.56-9.365-.855.58-2.562 1.72-5.052 3.226-6.968"/></g><defs><clipPath id="a"><path fill="#fff" d="M0 0h60v60H0z"/></clipPath></defs></svg>